# xmcd
#
# Track frame offsets: 
#        150
#        15855
#        36161
#        54168
#        72798
#        92156
#        112816
#        133397
#        150671
#        173021
#        194105
#        217972
#        238895
#
# Disc length: 3512 seconds
#
# Revision: 8
# Processed by: cddbd v1.5.2PL0 Copyright (c) Steve Scherf et al.
# Submitted via: ExactAudioCopy v1.0b4
#
DISCID=ab0db60d
DTITLE=Peter Green - Reaching The Cold 100 [disk 1]
DYEAR=2003
DGENRE=Blues Rock
TTITLE0=Ain't Nothin' Gonna Change It
TTITLE1=Look Out For Yourself
TTITLE2=Cool Down
TTITLE3=Dangerous Man
TTITLE4=Needs Must The Devil Drives
TTITLE5=Must Be A Fool
TTITLE6=Don't Walk Away
TTITLE7=Can You Tell Me Why (A.K.A. Legal Fee Blues)
TTITLE8=Spiritual Thief
TTITLE9=I'm Ready For You
TTITLE10=Smile
TTITLE11=Nice Girl Like You
TTITLE12=When Somebody Cares
EXTD=www.colornotes.nl YEAR: 2003
EXTT0=
EXTT1=
EXTT2=
EXTT3=
EXTT4=
EXTT5=
EXTT6=
EXTT7=
EXTT8=
EXTT9=
EXTT10=
EXTT11=
EXTT12=
PLAYORDER=
